<?xml version="1.0" encoding="UTF-8" standalone="no"?>
<!-- Creator: fig2dev Version 3.2 Patchlevel 5-alpha5 -->

<!-- CreationDate: Sat Oct 29 14:06:55 2005 -->

<!-- Magnification: 1.050 -->

<svg
   xmlns:dc="http://purl.org/dc/elements/1.1/"
   xmlns:cc="http://creativecommons.org/ns#"
   xmlns:rdf="http://www.w3.org/1999/02/22-rdf-syntax-ns#"
   xmlns:svg="http://www.w3.org/2000/svg"
   xmlns="http://www.w3.org/2000/svg"
   xmlns:sodipodi="http://sodipodi.sourceforge.net/DTD/sodipodi-0.dtd"
   xmlns:inkscape="http://www.inkscape.org/namespaces/inkscape"
   width="2.8in"
   height="2.1in"
   viewBox="-15 -17 3312 2544"
   id="svg3260"
   version="1.1"
   inkscape:version="0.48.5 r10040"
   sodipodi:docname="boustro.svg">
  <metadata
     id="metadata3408">
    <rdf:RDF>
      <cc:Work
         rdf:about="">
        <dc:format>image/svg+xml</dc:format>
        <dc:type
           rdf:resource="http://purl.org/dc/dcmitype/StillImage" />
      </cc:Work>
    </rdf:RDF>
  </metadata>
  <defs
     id="defs3406" />
  <sodipodi:namedview
     pagecolor="#ffffff"
     bordercolor="#666666"
     borderopacity="1"
     objecttolerance="10"
     gridtolerance="10"
     guidetolerance="10"
     inkscape:pageopacity="0"
     inkscape:pageshadow="2"
     inkscape:window-width="1020"
     inkscape:window-height="746"
     id="namedview3404"
     showgrid="false"
     showborder="false"
     inkscape:showpageshadow="false"
     inkscape:zoom="1.6328077"
     inkscape:cx="126"
     inkscape:cy="94.499992"
     inkscape:window-x="0"
     inkscape:window-y="18"
     inkscape:window-maximized="0"
     inkscape:current-layer="svg3260" />
  <polyline
     id="polyline3264"
     style="fill:none;stroke:#ffff00;stroke-width:16;stroke-linecap:butt;stroke-linejoin:miter"
     points="1493,158 1275,448 " />
  <polyline
     id="polyline3266"
     style="fill:none;stroke:#ffff00;stroke-width:16"
     points="1303 358 1272 452 1354 395 " />
  <polyline
     id="polyline3268"
     style="fill:none;stroke:#ffff00;stroke-width:16;stroke-linecap:butt;stroke-linejoin:miter"
     points="1839,618 1442,618 " />
  <polyline
     id="polyline3270"
     style="fill:none;stroke:#ffff00;stroke-width:16"
     points="1531 586 1437 618 1531 649 " />
  <polyline
     id="polyline3272"
     style="fill:none;stroke:#ffff00;stroke-width:16;stroke-linecap:butt;stroke-linejoin:miter"
     points="738,1290 519,1580 " />
  <polyline
     id="polyline3274"
     style="fill:none;stroke:#ffff00;stroke-width:16"
     points="548 1489 516 1584 598 1527 " />
  <polyline
     id="polyline3276"
     style="fill:none;stroke:#ffff00;stroke-width:16;stroke-linecap:butt;stroke-linejoin:miter"
     points="1493,1290 1275,1580 " />
  <polyline
     id="polyline3278"
     style="fill:none;stroke:#ffff00;stroke-width:16"
     points="1303 1489 1272 1584 1354 1527 " />
  <polyline
     id="polyline3280"
     style="fill:none;stroke:#ffff00;stroke-width:16;stroke-linecap:butt;stroke-linejoin:miter"
     points="2249,1290 2031,1580 " />
  <polyline
     id="polyline3282"
     style="fill:none;stroke:#ffff00;stroke-width:16"
     points="2059 1489 2028 1584 2110 1527 " />
  <polyline
     id="polyline3284"
     style="fill:none;stroke:#ffff00;stroke-width:16;stroke-linecap:butt;stroke-linejoin:miter"
     points="2156,794 2322,1026 " />
  <polyline
     id="polyline3286"
     style="fill:none;stroke:#ffff00;stroke-width:16"
     points="2244 971 2325 1029 2295 934 " />
  <polyline
     id="polyline3288"
     style="fill:none;stroke:#ffff00;stroke-width:16;stroke-linecap:butt;stroke-linejoin:miter"
     points="1399,794 1565,1026 " />
  <polyline
     id="polyline3290"
     style="fill:none;stroke:#ffff00;stroke-width:16"
     points="1487 971 1568 1029 1538 934 " />
  <polyline
     id="polyline3292"
     style="fill:none;stroke:#ffff00;stroke-width:16;stroke-linecap:butt;stroke-linejoin:miter"
     points="1399,1930 1565,2162 " />
  <polyline
     id="polyline3294"
     style="fill:none;stroke:#ffff00;stroke-width:16"
     points="1487 2107 1568 2165 1538 2070 " />
  <polyline
     id="polyline3296"
     style="fill:none;stroke:#ffff00;stroke-width:16;stroke-linecap:butt;stroke-linejoin:miter"
     points="2154,1930 2320,2162 " />
  <polyline
     id="polyline3298"
     style="fill:none;stroke:#ffff00;stroke-width:16"
     points="2242 2107 2323 2165 2292 2070 " />
  <polyline
     id="polyline3300"
     style="fill:none;stroke:#ffff00;stroke-width:16;stroke-linecap:butt;stroke-linejoin:miter"
     points="2909,1930 3075,2162 " />
  <polyline
     id="polyline3302"
     style="fill:none;stroke:#ffff00;stroke-width:16"
     points="2997 2107 3078 2165 3047 2070 " />
  <polyline
     id="polyline3304"
     style="fill:none;stroke:#ffff00;stroke-width:16;stroke-linecap:butt;stroke-linejoin:miter"
     points="643,1930 809,2162 " />
  <polyline
     id="polyline3306"
     style="fill:none;stroke:#ffff00;stroke-width:16"
     points="731 2107 812 2165 782 2070 " />
  <polyline
     id="polyline3308"
     style="fill:none;stroke:#ffff00;stroke-width:16;stroke-linecap:butt;stroke-linejoin:miter"
     points="1839,1752 1442,1752 " />
  <polyline
     id="polyline3310"
     style="fill:none;stroke:#ffff00;stroke-width:16"
     points="1531 1720 1437 1752 1531 1783 " />
  <polyline
     id="polyline3312"
     style="fill:none;stroke:#ffff00;stroke-width:16;stroke-linecap:butt;stroke-linejoin:miter"
     points="1083,1752 686,1752 " />
  <polyline
     id="polyline3314"
     style="fill:none;stroke:#ffff00;stroke-width:16"
     points="775 1720 681 1752 775 1783 " />
  <polyline
     id="polyline3316"
     style="fill:none;stroke:#ffff00;stroke-width:16;stroke-linecap:butt;stroke-linejoin:miter"
     points="2595,1752 2198,1752 " />
  <polyline
     id="polyline3318"
     style="fill:none;stroke:#ffff00;stroke-width:16"
     points="2287 1720 2193 1752 2287 1783 " />
  <polyline
     id="polyline3320"
     style="fill:none;stroke:#ffff00;stroke-width:16;stroke-linecap:butt;stroke-linejoin:miter"
     points="1794,1185 2191,1185 " />
  <polyline
     id="polyline3322"
     style="fill:none;stroke:#ffff00;stroke-width:16"
     points="2101 1216 2196 1185 2101 1153 " />
  <polyline
     id="polyline3324"
     style="fill:none;stroke:#ffff00;stroke-width:16;stroke-linecap:butt;stroke-linejoin:miter"
     points="1038,1185 1435,1185 " />
  <polyline
     id="polyline3326"
     style="fill:none;stroke:#ffff00;stroke-width:16"
     points="1345 1216 1440 1185 1345 1153 " />
  <polyline
     id="polyline3328"
     style="fill:none;stroke:#ffff00;stroke-width:16;stroke-linecap:butt;stroke-linejoin:miter"
     points="1038,2319 1435,2319 " />
  <polyline
     id="polyline3330"
     style="fill:none;stroke:#ffff00;stroke-width:16"
     points="1345 2350 1440 2319 1345 2287 " />
  <polyline
     id="polyline3332"
     style="fill:none;stroke:#ffff00;stroke-width:16;stroke-linecap:butt;stroke-linejoin:miter"
     points="282,2319 679,2319 " />
  <polyline
     id="polyline3334"
     style="fill:none;stroke:#ffff00;stroke-width:16"
     points="590 2350 684 2319 590 2287 " />
  <polyline
     id="polyline3336"
     style="fill:none;stroke:#ffff00;stroke-width:16;stroke-linecap:butt;stroke-linejoin:miter"
     points="1794,2319 2191,2319 " />
  <polyline
     id="polyline3338"
     style="fill:none;stroke:#ffff00;stroke-width:16"
     points="2101 2350 2196 2319 2101 2287 " />
  <polyline
     id="polyline3340"
     style="fill:none;stroke:#ffff00;stroke-width:16;stroke-linecap:butt;stroke-linejoin:miter"
     points="2550,2319 2946,2319 " />
  <polyline
     id="polyline3342"
     style="fill:none;stroke:#ffff00;stroke-width:16"
     points="2857 2350 2952 2319 2857 2287 " />
</svg>
